<?xml version="1.0" encoding="UTF-8" standalone="no" ?>
<!DOCTYPE svg PUBLIC "-//W3C//DTD SVG 1.1//EN" "http://www.w3.org/Graphics/SVG/1.1/DTD/svg11.dtd">
<svg xmlns="http://www.w3.org/2000/svg" xmlns:xlink="http://www.w3.org/1999/xlink" version="1.1" width="1280" height="1024" viewBox="0 0 1280 1024" xml:space="preserve">
<desc>Created with Fabric.js 4.4.0</desc>
<defs>
</defs>
<g transform="matrix(1 0 0 1 640 512)" id="background-logo"  >
<rect style="stroke: none; stroke-width: 0; stroke-dasharray: none; stroke-linecap: butt; stroke-dashoffset: 0; stroke-linejoin: miter; stroke-miterlimit: 4; fill: rgb(255,255,255); fill-opacity: 0; fill-rule: nonzero; opacity: 1;"  paint-order="stroke"  x="-640" y="-512" rx="0" ry="0" width="1280" height="1024" />
</g>
<g transform="matrix(1.9211538461538462 0 0 1.9211538461538462 640.8881578947369 468.25854688779367)" id="logo-logo"  >
<g style=""  paint-order="stroke"   >
		<g transform="matrix(0.38908318703126094 0 0 -0.38908318703126094 0 0)"  >
<path style="stroke: none; stroke-width: 1; stroke-dasharray: none; stroke-linecap: butt; stroke-dashoffset: 0; stroke-linejoin: miter; stroke-miterlimit: 4; fill: rgb(114,80,116); fill-rule: nonzero; opacity: 1;"  paint-order="stroke"  transform=" translate(137.58399999999995, -273.90150000000006)" d="M 0 0 L 119.493 -41.435 L 121.27 -71.185 z M 22.642 69.963 L 111.104 -28.275 L -17.671 16.378 Z M -87.867 127.004 L -63.649 179.122 L 8.797 142.177 L -27.73 26.104 Z M -58.522 21.547 L -78.693 92.79 L -35.505 20.326 Z M -191.774 74.66 L -192.494 75.323 L -202.341 140.274 L -97.114 122.48 L -69.572 25.207000000000008 z M -185.581 230.196 L -72.90799999999999 183.845 L -72.23899999999999 183.504 L -96.13 132.089 L -202.35899999999998 150.05 z M -275.892 152.099 L -261.573 185.20499999999998 L -212.59599999999998 143.629 L -203.82199999999997 85.75099999999999 z M -282.927 214.333 L -268.85400000000004 192.631 L -279.01000000000005 169.065 z M -196.06 227.17 L -211.16 155.051 L -255.127 192.375 z M -219.638 283.239 L -195.555 238.652 L -261.884 199.57899999999998 L -283.524 232.95399999999998 z M -321.13300000000004 264.10299999999995 L -263.11300000000006 267.542 L -262.4750000000001 267.614 L -247.63000000000008 273.472 L -289.9630000000001 240.14999999999998 z M -334.45500000000004 284.86599999999993 L -329.30500000000006 292.04599999999994 L -300.1720000000001 305.5179999999999 L -292.40100000000007 329.73799999999994 L -259.8210000000001 343.4479999999999 L -268.8960000000001 276.8329999999999 L -329.20400000000006 273.2729999999999 z M -304.10100000000006 324.81499999999994 L -308.05500000000006 312.4889999999999 L -322.95900000000006 305.5969999999999 L -316.38000000000005 319.6479999999999 z M -340.0930000000001 291.72799999999995 L -343.5830000000001 295.48299999999995 L -328.6450000000001 326.31399999999996 L -288.7220000000001 352.554 L -270.1760000000001 349.53 L -323.5680000000001 327.02099999999996 z M -383.0490000000001 259.2629999999999 L -347.81200000000007 284.86599999999993 L -342.13000000000005 271.3299999999999 z M -249.9560000000001 344.4849999999999 L -212.3470000000001 324.6919999999999 L -222.1180000000001 293.8979999999999 L -258.81900000000013 279.41599999999994 z M -203.7710000000001 319.8559999999999 L -102.6900000000001 256.0939999999999 L -186.50400000000008 242.1739999999999 L -212.91000000000008 291.0579999999999 z M -95.7850000000001 377.8739999999999 L -70.26300000000009 336.2539999999999 L -181.0200000000001 337.74799999999993 z M -127.5330000000001 462.06499999999994 L -107.5280000000001 453.5919999999999 L -175.9890000000001 374.0639999999999 z M -171.44600000000008 364.5729999999999 L -104.28200000000008 442.5919999999999 L -104.05600000000008 414.8599999999999 z M -102.53800000000008 403.9669999999999 L -99.35200000000009 386.8469999999999 L -170.14100000000008 353.5209999999999 z M 48.482999999999905 607.9459999999999 L 50.049999999999905 556.1189999999999 L -100.01800000000011 460.8749999999999 L -120.07100000000011 469.3699999999999 z M -0.621 445.411 L -94.45 418.816 L -94.729 452.818 L 44.751999999999995 541.3439999999999 z M 15.921999999999999 361.394 L -89.76400000000001 387.99 L -93.677 409.02 L -1.132000000000005 435.251 z M 16.031 301.372 L -58.249 335.095 L -83.648 376.51500000000004 L 17.527 351.052 z M 43.370999999999995 229.08700000000002 L -52.042 288.958 L -55.863 323.42900000000003 L 17.003 290.348 z M 35.465999999999994 172.358 L -62.504000000000005 269.65700000000004 L -55.309000000000005 279.63200000000006 L 47.269 215.26600000000008 z M -65.808 191.587 L -67.09700000000001 191.873 L -171.62900000000002 234.87699999999998 L -92.22800000000002 248.063 z M -78.209 268.032 L -89.676 259.277 L -163.503 305.849 z M -64.4 283.501 L -71.17 275.128 L -157.8 309.393 z M -175.233 328.03299999999996 L -65.903 326.55799999999994 L -62.17400000000001 292.89899999999994 z M -53.935 188.94999999999996 L -83.403 251.93999999999997 L -69.233 262.76 L 22.090999999999994 172.062 z M 16.037 77.21 L -14.186 37.037 L 12.62 122.219 Z M 126.484 -30.88 L 29.444 76.886 L 23.935 149.434 L -6.804 165.109 L 43.81 152.38 L 62.17400000000001 219.147 L 29.210000000000008 295.736 L 31.006000000000007 355.365 L 11.502000000000006 439.836 L 63.05000000000001 548.826 L 63.58300000000001 549.9540000000001 L 61.000000000000014 635.5110000000001 L -136.81099999999998 472.8810000000001 L -210.60899999999998 338.8560000000001 L -250.47299999999998 359.8370000000001 L -291.70599999999996 366.5590000000001 L -339.04799999999994 335.44200000000006 L -358.76199999999994 294.7560000000001 L -405.20399999999995 254.12200000000007 L -401.573 245.54900000000006 L -336.284 258.91900000000004 L -297.605 229.19400000000005 L -290.53200000000004 147.43800000000005 L -199.02600000000004 63.20100000000005 L -64.572 8.79 L -63.77 8.465 L -30.21 6.683 L 130.036 -87.708 Z" stroke-linecap="round" />
</g>
		<g transform="matrix(0.38908318703126094 0 0 -0.38908318703126094 53.891756602425176 75.58863035235512)"  >
<path style="stroke: none; stroke-width: 1; stroke-dasharray: none; stroke-linecap: butt; stroke-dashoffset: 0; stroke-linejoin: miter; stroke-miterlimit: 4; fill: rgb(255,145,77); fill-rule: nonzero; opacity: 1;"  paint-order="stroke"  transform=" translate(11.694500000000001, 42.591)" d="M 0 0 L 3.417 -45.009 L -26.806 -85.182 Z" stroke-linecap="round" />
</g>
		<g transform="matrix(0.38908318703126094 0 0 -0.38908318703126094 38.14913958859074 66.64551439012291)"  >
<path style="stroke: none; stroke-width: 1; stroke-dasharray: none; stroke-linecap: butt; stroke-dashoffset: 0; stroke-linejoin: miter; stroke-miterlimit: 4; fill: rgb(255,190,88); fill-rule: nonzero; opacity: 1;"  paint-order="stroke"  transform=" translate(-48.332, 24.391000000000005)" d="M 0 0 L 24.218 52.118 L 96.664 15.173 L 60.137 -100.9 Z" stroke-linecap="round" />
</g>
		<g transform="matrix(0.38908318703126094 0 0 -0.38908318703126094 40.668336499662075 -25.30643738433764)"  >
<path style="stroke: none; stroke-width: 1; stroke-dasharray: none; stroke-linecap: butt; stroke-dashoffset: 0; stroke-linejoin: miter; stroke-miterlimit: 4; fill: rgb(255,190,88); fill-rule: nonzero; opacity: 1;"  paint-order="stroke"  transform=" translate(-25.188499999999998, -3.8475000000000037)" d="M 0 0 L -25.399 41.419 L 75.776 15.957 L 74.28 -33.724 Z" stroke-linecap="round" />
</g>
		<g transform="matrix(0.38908318703126094 0 0 -0.38908318703126094 7.340171048300931 21.040218055177377)"  >
<path style="stroke: none; stroke-width: 1; stroke-dasharray: none; stroke-linecap: butt; stroke-dashoffset: 0; stroke-linejoin: miter; stroke-miterlimit: 4; fill: rgb(255,145,77); fill-rule: nonzero; opacity: 1;"  paint-order="stroke"  transform=" translate(51.622, -27.951999999999998)" d="M 0 0 L -104.533 43.004 L -25.131 56.19 L 1.289 -0.286 Z" stroke-linecap="round" />
</g>
		<g transform="matrix(0.38908318703126094 0 0 -0.38908318703126094 -34.242977840709045 32.21258613750521)"  >
<path style="stroke: none; stroke-width: 1; stroke-dasharray: none; stroke-linecap: butt; stroke-dashoffset: 0; stroke-linejoin: miter; stroke-miterlimit: 4; fill: rgb(255,145,77); fill-rule: nonzero; opacity: 1;"  paint-order="stroke"  transform=" translate(-29.5335, 1.2644999999999982)" d="M 0 0 L 59.067 34.795 L 43.967 -37.324 z" stroke-linecap="round" />
</g>
		<g transform="matrix(0.38908318703126094 0 0 -0.38908318703126094 6.508622460977563 -3.370121841108613)"  >
<path style="stroke: none; stroke-width: 1; stroke-dasharray: none; stroke-linecap: butt; stroke-dashoffset: 0; stroke-linejoin: miter; stroke-miterlimit: 4; fill: rgb(255,145,77); fill-rule: nonzero; opacity: 1;"  paint-order="stroke"  transform=" translate(-42.647, 23.286)" d="M 0 0 L 85.294 -37.817 L 73.827 -46.572 Z" stroke-linecap="round" />
</g>
		<g transform="matrix(0.38908318703126094 0 0 -0.38908318703126094 4.646625961120833 -32.35716944980598)"  >
<path style="stroke: none; stroke-width: 1; stroke-dasharray: none; stroke-linecap: butt; stroke-dashoffset: 0; stroke-linejoin: miter; stroke-miterlimit: 4; fill: rgb(255,145,77); fill-rule: nonzero; opacity: 1;"  paint-order="stroke"  transform=" translate(-55.3785, -19.316)" d="M 0 0 L 85.235 40.126 L 110.757 -1.4939999999999998 z" stroke-linecap="round" />
</g>
		<g transform="matrix(0.38908318703126094 0 0 -0.38908318703126094 10.30436240037983 -7.143217139025609)"  >
<path style="stroke: none; stroke-width: 1; stroke-dasharray: none; stroke-linecap: butt; stroke-dashoffset: 0; stroke-linejoin: miter; stroke-miterlimit: 4; fill: rgb(255,190,88); fill-rule: nonzero; opacity: 1;"  paint-order="stroke"  transform=" translate(-46.6995, 17.132)" d="M 0 0 L 93.399 -25.892 L 86.63 -34.264 Z" stroke-linecap="round" />
</g>
		<g transform="matrix(0.38908318703126094 0 0 -0.38908318703126094 7.346124021062394 -14.226710008841877)"  >
<path style="stroke: none; stroke-width: 1; stroke-dasharray: none; stroke-linecap: butt; stroke-dashoffset: 0; stroke-linejoin: miter; stroke-miterlimit: 4; fill: rgb(255,222,89); fill-rule: nonzero; opacity: 1;"  paint-order="stroke"  transform=" translate(-56.53, 17.567)" d="M 0 0 L 109.33 -1.475 L 113.06 -35.134 z" stroke-linecap="round" />
</g>
		<g transform="matrix(0.38908318703126094 0 0 -0.38908318703126094 1.1041791764760092 -40.792570761281155)"  >
<path style="stroke: none; stroke-width: 1; stroke-dasharray: none; stroke-linecap: butt; stroke-dashoffset: 0; stroke-linejoin: miter; stroke-miterlimit: 4; fill: rgb(255,222,89); fill-rule: nonzero; opacity: 1;"  paint-order="stroke"  transform=" translate(32.208000000000006, 25.223)" d="M 0 0 L 3.187 -17.121 L -67.60300000000001 -50.446 z" stroke-linecap="round" />
</g>
		<g transform="matrix(0.38908318703126094 0 0 -0.38908318703126094 -0.06486016727814103 -50.456618960763535)"  >
<path style="stroke: none; stroke-width: 1; stroke-dasharray: none; stroke-linecap: butt; stroke-dashoffset: 0; stroke-linejoin: miter; stroke-miterlimit: 4; fill: rgb(255,190,88); fill-rule: nonzero; opacity: 1;"  paint-order="stroke"  transform=" translate(33.4685, 39.0095)" d="M 0 0 L 0.227 -27.732 L -67.164 -78.019 Z" stroke-linecap="round" />
</g>
		<g transform="matrix(0.38908318703126094 0 0 -0.38908318703126094 -7.865744617342614 -2.7677821592655505)"  >
<path style="stroke: none; stroke-width: 1; stroke-dasharray: none; stroke-linecap: butt; stroke-dashoffset: 0; stroke-linejoin: miter; stroke-miterlimit: 4; fill: rgb(255,222,89); fill-rule: nonzero; opacity: 1;"  paint-order="stroke"  transform=" translate(-55.1095, 10.043)" d="M 0 0 L 9.139 28.798 L 110.219 -34.964 L 26.405 -48.884 z" stroke-linecap="round" />
</g>
		<g transform="matrix(0.38908318703126094 0 0 -0.38908318703126094 -39.669131967047065 12.642246546294558)"  >
<path style="stroke: none; stroke-width: 1; stroke-dasharray: none; stroke-linecap: butt; stroke-dashoffset: 0; stroke-linejoin: miter; stroke-miterlimit: 4; fill: rgb(255,190,88); fill-rule: nonzero; opacity: 1;"  paint-order="stroke"  transform=" translate(-43.985, -8.454999999999998)" d="M 0 0 L 63.886 50.285 L 87.97 5.698 L 21.641 -33.375 Z" stroke-linecap="round" />
</g>
		<g transform="matrix(0.38908318703126094 0 0 -0.38908318703126094 -53.81261708218295 31.98361068193728)"  >
<path style="stroke: none; stroke-width: 1; stroke-dasharray: none; stroke-linecap: butt; stroke-dashoffset: 0; stroke-linejoin: miter; stroke-miterlimit: 4; fill: rgb(255,145,77); fill-rule: nonzero; opacity: 1;"  paint-order="stroke"  transform=" translate(-7.0365, 22.634)" d="M 0 0 L 14.073 -21.702 L 3.917 -45.268 Z" stroke-linecap="round" />
</g>
		<g transform="matrix(0.38908318703126094 0 0 -0.38908318703126094 -39.79254915397337 53.8583732649779)"  >
<path style="stroke: none; stroke-width: 1; stroke-dasharray: none; stroke-linecap: butt; stroke-dashoffset: 0; stroke-linejoin: miter; stroke-miterlimit: 4; fill: rgb(255,190,88); fill-rule: nonzero; opacity: 1;"  paint-order="stroke"  transform=" translate(-36.035, 16.620999999999995)" d="M 0 0 L 14.319 33.106 L 63.296 -8.47 L 72.07 -66.348 Z" stroke-linecap="round" />
</g>
		<g transform="matrix(0.38908318703126094 0 0 -0.38908318703126094 0.11073307502908847 36.09104516247018)"  >
<path style="stroke: none; stroke-width: 1; stroke-dasharray: none; stroke-linecap: butt; stroke-dashoffset: 0; stroke-linejoin: miter; stroke-miterlimit: 4; fill: rgb(255,222,89); fill-rule: nonzero; opacity: 1;"  paint-order="stroke"  transform=" translate(-65.06, -31.0925)" d="M 0 0 L 16.779 80.146 L 129.451 33.795 L 130.12 33.454 L 106.229 -17.961 Z" stroke-linecap="round" />
</g>
		<g transform="matrix(0.38908318703126094 0 0 -0.38908318703126094 41.60369248128512 21.97962050194556)"  >
<path style="stroke: none; stroke-width: 1; stroke-dasharray: none; stroke-linecap: butt; stroke-dashoffset: 0; stroke-linejoin: miter; stroke-miterlimit: 4; fill: rgb(255,222,89); fill-rule: nonzero; opacity: 1;"  paint-order="stroke"  transform=" translate(-23.278, -28.460500000000003)" d="M 0 0 L -29.469 62.99 L -15.299000000000001 73.81 L 76.02499999999999 -16.888999999999996 z" stroke-linecap="round" />
</g>
		<g transform="matrix(0.38908318703126094 0 0 -0.38908318703126094 50.567624394023596 18.639496974557034)"  >
<path style="stroke: none; stroke-width: 1; stroke-dasharray: none; stroke-linecap: butt; stroke-dashoffset: 0; stroke-linejoin: miter; stroke-miterlimit: 4; fill: rgb(255,190,88); fill-rule: nonzero; opacity: 1;"  paint-order="stroke"  transform=" translate(-54.886, 43.662000000000006)" d="M 0 0 L 7.195 9.975 L 109.772 -54.392 L 97.97 -97.299 Z" stroke-linecap="round" />
</g>
		<g transform="matrix(0.38908318703126094 0 0 -0.38908318703126094 51.10140761831167 -0.916874530239113)"  >
<path style="stroke: none; stroke-width: 1; stroke-dasharray: none; stroke-linecap: butt; stroke-dashoffset: 0; stroke-linejoin: miter; stroke-miterlimit: 4; fill: rgb(255,145,77); fill-rule: nonzero; opacity: 1;"  paint-order="stroke"  transform=" translate(-45.796, 12.700000000000003)" d="M 0 0 L -3.821 34.471 L 69.045 1.39 L 95.413 -59.871 Z" stroke-linecap="round" />
</g>
		<g transform="matrix(0.38908318703126094 0 0 -0.38908318703126094 38.40500069238254 -48.409846855385524)"  >
<path style="stroke: none; stroke-width: 1; stroke-dasharray: none; stroke-linecap: butt; stroke-dashoffset: 0; stroke-linejoin: miter; stroke-miterlimit: 4; fill: rgb(255,145,77); fill-rule: nonzero; opacity: 1;"  paint-order="stroke"  transform=" translate(-50.886, -10.332)" d="M 0 0 L -3.914 21.03 L 88.631 47.261 L 105.686 -26.597 z" stroke-linecap="round" />
</g>
		<g transform="matrix(0.38908318703126094 0 0 -0.38908318703126094 43.808821443784836 -80.22074351059962)"  >
<path style="stroke: none; stroke-width: 1; stroke-dasharray: none; stroke-linecap: butt; stroke-dashoffset: 0; stroke-linejoin: miter; stroke-miterlimit: 4; fill: rgb(255,190,88); fill-rule: nonzero; opacity: 1;"  paint-order="stroke"  transform=" translate(-69.7405, -27.261999999999993)" d="M 0 0 L 139.481 88.526 L 94.108 -7.407 L 0.279 -34.002 Z" stroke-linecap="round" />
</g>
		<g transform="matrix(0.38908318703126094 0 0 -0.38908318703126094 39.909507559995006 -101.35974978696413)"  >
<path style="stroke: none; stroke-width: 1; stroke-dasharray: none; stroke-linecap: butt; stroke-dashoffset: 0; stroke-linejoin: miter; stroke-miterlimit: 4; fill: rgb(255,145,77); fill-rule: nonzero; opacity: 1;"  paint-order="stroke"  transform=" translate(-85.0605, -65.041)" d="M 0 0 L 168.555 138.577 L 170.121 86.75 L 20.054 -8.495 Z" stroke-linecap="round" />
</g>
		<g transform="matrix(0.38908318703126094 0 0 -0.38908318703126094 -1.6243055808993745 -56.09159403358112)"  >
<path style="stroke: none; stroke-width: 1; stroke-dasharray: none; stroke-linecap: butt; stroke-dashoffset: 0; stroke-linejoin: miter; stroke-miterlimit: 4; fill: rgb(255,145,77); fill-rule: nonzero; opacity: 1;"  paint-order="stroke"  transform=" translate(14.225500000000004, 44.0005)" d="M 0 0 L 20.005 -8.473 L -48.456 -88.001 Z" stroke-linecap="round" />
</g>
		<g transform="matrix(0.38908318703126094 0 0 -0.38908318703126094 -38.12956870428303 -14.804187275033684)"  >
<path style="stroke: none; stroke-width: 1; stroke-dasharray: none; stroke-linecap: butt; stroke-dashoffset: 0; stroke-linejoin: miter; stroke-miterlimit: 4; fill: rgb(255,190,88); fill-rule: nonzero; opacity: 1;"  paint-order="stroke"  transform=" translate(-14.373000000000001, 32.5345)" d="M 0 0 L 37.609 -19.792 L 27.837000000000003 -50.586 L -8.863 -65.069 z" stroke-linecap="round" />
</g>
		<g transform="matrix(0.38908318703126094 0 0 -0.38908318703126094 -62.07981773190454 -13.407728808459808)"  >
<path style="stroke: none; stroke-width: 1; stroke-dasharray: none; stroke-linecap: butt; stroke-dashoffset: 0; stroke-linejoin: miter; stroke-miterlimit: 4; fill: rgb(255,145,77); fill-rule: nonzero; opacity: 1;"  paint-order="stroke"  transform=" translate(-37.317, -23.495500000000003)" d="M 0 0 L 5.15 7.181 L 34.283 20.652 L 42.054 44.873000000000005 L 74.634 58.583000000000006 L 65.559 -8.032999999999994 L 5.250999999999998 -11.591999999999995 z" stroke-linecap="round" />
</g>
		<g transform="matrix(0.38908318703126094 0 0 -0.38908318703126094 -68.45759151708353 -16.070886498732676)"  >
<path style="stroke: none; stroke-width: 1; stroke-dasharray: none; stroke-linecap: butt; stroke-dashoffset: 0; stroke-linejoin: miter; stroke-miterlimit: 4; fill: rgb(255,222,89); fill-rule: nonzero; opacity: 1;"  paint-order="stroke"  transform=" translate(-2.8500000000000005, 4.442)" d="M 0 0 L 12.279 5.167 L 8.325 -7.159 L -6.579 -14.051 Z" stroke-linecap="round" />
</g>
		<g transform="matrix(0.38908318703126094 0 0 -0.38908318703126094 -65.86983814845735 -18.7691394924758)"  >
<path style="stroke: none; stroke-width: 1; stroke-dasharray: none; stroke-linecap: butt; stroke-dashoffset: 0; stroke-linejoin: miter; stroke-miterlimit: 4; fill: rgb(255,190,88); fill-rule: nonzero; opacity: 1;"  paint-order="stroke"  transform=" translate(-36.7035, -26.658)" d="M 0 0 L 14.938 30.831 L 54.86 57.071 L 73.407 54.047 L 20.014 31.538 L 3.49 -3.755 Z" stroke-linecap="round" />
</g>
		<g transform="matrix(0.38908318703126094 0 0 -0.38908318703126094 -57.116555873177674 6.649392758045593)"  >
<path style="stroke: none; stroke-width: 1; stroke-dasharray: none; stroke-linecap: butt; stroke-dashoffset: 0; stroke-linejoin: miter; stroke-miterlimit: 4; fill: rgb(255,145,77); fill-rule: nonzero; opacity: 1;"  paint-order="stroke"  transform=" translate(-36.7515, 7.291)" d="M 0 0 L 58.02 3.439 L 58.659 3.512 L 73.503 9.37 L 31.17 -23.952 Z" stroke-linecap="round" />
</g>
		<g transform="matrix(0.38908318703126094 0 0 -0.38908318703126094 0.6332717952120674 74.3774532994455)"  >
<path style="stroke: none; stroke-width: 1; stroke-dasharray: none; stroke-linecap: butt; stroke-dashoffset: 0; stroke-linejoin: miter; stroke-miterlimit: 4; fill: rgb(255,145,77); fill-rule: nonzero; opacity: 1;"  paint-order="stroke"  transform=" translate(-55.818, -8.0805)" d="M 0 0 L -0.72 0.663 L -10.566 65.614 L 94.66 47.82 L 122.202 -49.453 Z" stroke-linecap="round" />
</g>
		<g transform="matrix(0.38908318703126094 0 0 -0.38908318703126094 31.315399216529784 84.56474056884767)"  >
<path style="stroke: none; stroke-width: 1; stroke-dasharray: none; stroke-linecap: butt; stroke-dashoffset: 0; stroke-linejoin: miter; stroke-miterlimit: 4; fill: rgb(255,222,89); fill-rule: nonzero; opacity: 1;"  paint-order="stroke"  transform=" translate(-1.4235000000000007, -35.010999999999996)" d="M 0 0 L -20.171 71.243 L 23.018 -1.221 Z" stroke-linecap="round" />
</g>
		<g transform="matrix(0.38908318703126094 0 0 -0.38908318703126094 -87.54585703956235 0.7148236312139318)"  >
<path style="stroke: none; stroke-width: 1; stroke-dasharray: none; stroke-linecap: butt; stroke-dashoffset: 0; stroke-linejoin: miter; stroke-miterlimit: 4; fill: rgb(255,190,88); fill-rule: nonzero; opacity: 1;"  paint-order="stroke"  transform=" translate(14.776999999999997, 12.8015)" d="M 0 0 L 5.682 -13.536 L -35.236 -25.603 Z" stroke-linecap="round" />
</g>
		<g transform="matrix(0.38908318703126094 0 0 -0.38908318703126094 77.1235246168747 120.41871734545956)"  >
<path style="stroke: none; stroke-width: 1; stroke-dasharray: none; stroke-linecap: butt; stroke-dashoffset: 0; stroke-linejoin: miter; stroke-miterlimit: 4; fill: rgb(255,145,77); fill-rule: nonzero; opacity: 1;"  paint-order="stroke"  transform=" translate(60.635, -35.5925)" d="M 0 0 L -1.776 29.75 L -121.27 71.185 Z" stroke-linecap="round" />
</g>
		<g transform="matrix(0.38908318703126094 0 0 -0.38908318703126094 71.70822591145486 98.46057423543826)"  >
<path style="stroke: none; stroke-width: 1; stroke-dasharray: none; stroke-linecap: butt; stroke-dashoffset: 0; stroke-linejoin: miter; stroke-miterlimit: 4; fill: rgb(255,190,88); fill-rule: nonzero; opacity: 1;"  paint-order="stroke"  transform=" translate(64.388, -49.119)" d="M 0 0 L -88.463 98.238 L -128.776 44.653 Z" stroke-linecap="round" />
</g>
</g>
</g>
</svg>